#format: frame checksums
#version: 2
#hash: MD5
#tb 0: 1/96000
#media_type 0: audio
#codec_id 0: pcm_s16le
#sample_rate 0: 96000
#channel_layout_name 0: 5.1(side)
#stream#, dts,        pts, duration,     size, hash
0,          0,          0,     1024,    12288, 848250bf0a20e324f60151629134ebd5
0,       1024,       1024,     1024,    12288, cd3c42240d163a7e8835aeda9538f881
0,       2048,       2048,     1024,    12288, f213a268e7ab62b53a4a4acb9b303dfb
0,       3072,       3072,     1024,    12288, 14d4f3289b057394abc995bfea58912a
0,       4096,       4096,     1024,    12288, a69453c3f0c23abfacb49b15aedc432a
0,       5120,       5120,     1024,    12288, 6578b4a89b1fa4c8897b1376974b685d
0,       6144,       6144,     1024,    12288, 4893b62addf1bea4c03c173f173aa082
0,       7168,       7168,     1024,    12288, 992b70ea94c339dfda2d3514ac56c4a9
0,       8192,       8192,     1024,    12288, 543f85139b77d30f8a46fd22d63e3ec7
0,       9216,       9216,     1024,    12288, f52f825a2fe71f66786d5cd08487e271
0,      10240,      10240,     1024,    12288, 50ac352cd73a803f52bfd393e610f83b
0,      11264,      11264,     1024,    12288, e9475a9a8794b9b0b912b855bc05001f
0,      12288,      12288,     1024,    12288, bf205474f44a381583b1f077ab8a9d0c
0,      13312,      13312,     1024,    12288, f5655b1da90d808c7e05b4bda02233ca
0,      14336,      14336,     1024,    12288, f8493bb74a270b50706cace85549c317
0,      15360,      15360,     1024,    12288, c299fbbdcae68c97bca63210f6a1f7da
0,      16384,      16384,     1024,    12288, 2f263932e3d4c419853e3369d70ef8d9
0,      17408,      17408,     1024,    12288, 09862736b8a1a1ce5c8d23814fb054cd
0,      18432,      18432,     1024,    12288, a99506638c5a3d84d3fa46ee2ba6c5ad
0,      19456,      19456,     1024,    12288, ab6f04f68cfbf2c9a89e9641604b3a50
